# xmcd
#
# Track frame offsets: 
#        150
#        16339
#        33239
#        49290
#        69740
#        93847
#        108118
#        124824
#        149507
#        166626
#
# Disc length: 2618 seconds
#
# Revision: 0
# Processed by: cddbd v1.4b42PL1 Copyright (c) Steve Scherf et al.
# Submitted via: ExactAudioCopy v0.90a11
#
DISCID=7e0a380a
DTITLE=Marit Peters - Dead Reckoning
DYEAR=1900
DGENRE=
TTITLE0=Angels Hovering
TTITLE1=Beautiful Girls
TTITLE2=Marie
TTITLE3=Dinosaur
TTITLE4=Theater
TTITLE5=Shiney Things
TTITLE6=Watering Eden
TTITLE7=Mother's Mantle
TTITLE8=Noah's Ark
TTITLE9=Let The Happiness In
EXTD=
EXTT0=
EXTT1=
EXTT2=
EXTT3=
EXTT4=
EXTT5=
EXTT6=
EXTT7=
EXTT8=
EXTT9=
PLAYORDER=
